<?xml version="1.0" encoding="utf-8"?>
<!-- Generator: Adobe Illustrator 19.1.0, SVG Export Plug-In . SVG Version: 6.00 Build 0)  -->
<svg version="1.1" id="Layer_1" xmlns="http://www.w3.org/2000/svg" xmlns:xlink="http://www.w3.org/1999/xlink" x="0px" y="0px"
	 width="70px" height="70px" viewBox="0 0 70 70" style="enable-background:new 0 0 70 70;" xml:space="preserve">
<g>
	<g>
		<linearGradient id="SVGID_1_" gradientUnits="userSpaceOnUse" x1="37.049" y1="55.637" x2="23.5584" y2="5.4222">
			<stop  offset="4.838710e-002" style="stop-color:#7866FF"/>
			<stop  offset="0.135" style="stop-color:#8265FA"/>
			<stop  offset="0.2807" style="stop-color:#9C64EE"/>
			<stop  offset="0.4665" style="stop-color:#C661D9"/>
			<stop  offset="0.6075" style="stop-color:#EB5FC7"/>
			<stop  offset="0.7292" style="stop-color:#FA6398"/>
			<stop  offset="0.7688" style="stop-color:#FF6488"/>
			<stop  offset="0.9946" style="stop-color:#FF7500"/>
		</linearGradient>
		<polygon style="fill:url(#SVGID_1_);" points="42.8,0 0,4.8 0,26.8 10.7,62.6 64.6,48.9 		"/>
		<linearGradient id="SVGID_2_" gradientUnits="userSpaceOnUse" x1="69.1096" y1="50.4511" x2="57.1689" y2="46.1321">
			<stop  offset="0.2473" style="stop-color:#7866FF"/>
			<stop  offset="0.3461" style="stop-color:#8F5FFA"/>
			<stop  offset="0.5314" style="stop-color:#B353F1"/>
			<stop  offset="0.7045" style="stop-color:#CD4AEB"/>
			<stop  offset="0.859" style="stop-color:#DD45E7"/>
			<stop  offset="0.9793" style="stop-color:#E343E6"/>
		</linearGradient>
		<polygon style="fill:url(#SVGID_2_);" points="70,41.3 65.9,22.2 56.7,34.9 50.3,54.2 48.2,70 64,60 		"/>
		<linearGradient id="SVGID_3_" gradientUnits="userSpaceOnUse" x1="57.0116" y1="46.8403" x2="23.73" y2="32.8671">
			<stop  offset="6.215526e-003" style="stop-color:#E343E6"/>
			<stop  offset="6.426319e-002" style="stop-color:#E649CA"/>
			<stop  offset="0.1899" style="stop-color:#EF5982"/>
			<stop  offset="0.3724" style="stop-color:#FD7110"/>
			<stop  offset="0.3978" style="stop-color:#FF7500"/>
		</linearGradient>
		<polygon style="fill:url(#SVGID_3_);" points="65.9,22.2 52.5,15.8 36.8,17.2 21.4,27.9 18.3,47.1 31.8,65.5 48.2,70 		"/>
	</g>
	<g>
		<rect x="13.4" y="13.4" style="fill:#000000;" width="43.2" height="43.2"/>
		<g>
			<path style="fill:#FFFFFF;" d="M17.5,19.1h7c5.6,0,9.5,3.9,9.5,8.9v0.1c0,5-3.9,8.9-9.5,8.9h-7V19.1z M21.4,22.7v10.8h3
				c3.2,0,5.4-2.2,5.4-5.3v-0.1c0-3.2-2.2-5.4-5.4-5.4H21.4z"/>
			<rect x="17.5" y="48.5" style="fill:#FFFFFF;" width="16.2" height="2.7"/>
			<path style="fill:#FFFFFF;" d="M35.4,28.1L35.4,28.1c0-5.1,3.8-9.3,9.3-9.3c3.4,0,5.4,1.1,7.1,2.8l-2.5,2.9c-1.4-1.3-2.8-2-4.6-2
				c-3,0-5.2,2.5-5.2,5.6v0.1c0,3.1,2.1,5.6,5.2,5.6c2,0,3.3-0.8,4.7-2.1l2.5,2.5c-1.8,2-3.9,3.2-7.3,3.2
				C39.4,37.3,35.4,33.3,35.4,28.1"/>
		</g>
	</g>
</g>
</svg>
