<svg xmlns="http://www.w3.org/2000/svg" viewBox="0 0 317.35 689.08"><defs><style>.cls-1{fill:#c69158;}.cls-2{fill:#0fbc56;}.cls-3{fill:#154007;}.cls-4{opacity:0.5;}.cls-5{fill:#64bcb3;}.cls-6{fill:#385868;}.cls-7,.cls-9{fill:#fff;}.cls-8{fill:none;stroke:#463e3b;stroke-miterlimit:10;stroke-width:2px;}.cls-9{opacity:0.2;}.cls-10{fill:#463e3b;}.cls-11{fill:#f7d1a9;opacity:0.3;}</style></defs><title>Asset 250</title><g id="Layer_2" data-name="Layer 2"><g id="Layer_1-2" data-name="Layer 1"><path class="cls-1" d="M245.27,673.83l-1.72,4.53c-1.68,4.42.38,7.71-11.69,7.71H82.75c-12.05,0-10-3.29-11.69-7.71l-1.72-4.53Z"/><path class="cls-2" d="M210.62-3.88h0a10,10,0,0,1,10,10V555a0,0,0,0,1,0,0h-20a0,0,0,0,1,0,0V6.11a10,10,0,0,1,10-10Z" transform="translate(64.6 -39.04) rotate(12.49)"/><path class="cls-3" d="M161.83,553.54l-24.39-5.41L256.72,9.79a12.49,12.49,0,0,1,24.39,5.41Zm-18.43-9.21L158,547.57,276.23,14.11a7.49,7.49,0,1,0-14.63-3.24Z"/><g class="cls-4"><rect class="cls-5" x="12.76" y="304.36" width="291.83" height="15" rx="5.5" ry="5.5"/></g><g class="cls-4"><path class="cls-5" d="M307.57,288A148.89,148.89,0,0,0,9.78,288Z"/></g><path class="cls-6" d="M312.56,288.68h-10c0-79.34-64.55-143.89-143.89-143.89S14.78,209.34,14.78,288.68h-10c0-84.86,69-153.89,153.89-153.89S312.56,203.83,312.56,288.68Z"/><path class="cls-7" d="M59.5,208.58c21.52-22.66,53-45.53,85.48-44.43,5.51.19,5.51-8.38,0-8.57-34.79-1.18-68.45,22.63-91.53,46.94-3.8,4,2.25,10.06,6.06,6.06Z"/><path class="cls-6" d="M299.09,322.68H18.26a9.51,9.51,0,0,1-9.5-9.5v-4a9.51,9.51,0,0,1,9.5-9.5H299.09a9.51,9.51,0,0,1,9.5,9.5v4A9.51,9.51,0,0,1,299.09,322.68Zm-280.83-15a1.52,1.52,0,0,0-1.5,1.5v4a1.52,1.52,0,0,0,1.5,1.5H299.09a1.52,1.52,0,0,0,1.5-1.5v-4a1.52,1.52,0,0,0-1.5-1.5Z"/><g class="cls-4"><rect class="cls-5" x="4" y="286.64" width="309.35" height="15" rx="5.5" ry="5.5"/></g><path class="cls-6" d="M307.85,305H9.5a9.51,9.51,0,0,1-9.5-9.5v-4A9.51,9.51,0,0,1,9.5,282H307.85a9.51,9.51,0,0,1,9.5,9.5v4A9.51,9.51,0,0,1,307.85,305ZM9.5,290a1.52,1.52,0,0,0-1.5,1.5v4A1.52,1.52,0,0,0,9.5,297H307.85a1.52,1.52,0,0,0,1.5-1.5v-4a1.52,1.52,0,0,0-1.5-1.5Z"/><path class="cls-8" d="M162.42,371.18"/><path class="cls-1" d="M155.82,686.08h73.7c12.4,0,16.09-9.13,17.81-21.41l47.14-335.24a7.73,7.73,0,0,0-7.65-8.8H30.52a7.73,7.73,0,0,0-7.65,8.8L70,664.67c1.73,12.28,4.05,21.41,16.45,21.41h75.07"/><path class="cls-9" d="M155.9,669.08h87.34c13.84-12,0-8.37,1.69-19.62l45.86-307.13c.64-4.26,3.94-8.06-.62-8.06H28.56c-4.57,0-2.62,3.8-2,8.06L72.43,649.46c1.68,11.25-10.37,19.62,1.69,19.62h87.34"/><path class="cls-10" d="M162.42,382"/><path class="cls-6" d="M233.31,689.08H82a16.6,16.6,0,0,1-16.36-14.22L14.88,313.63H300.47l-50.8,361.22A16.6,16.6,0,0,1,233.31,689.08Zm-78.49-10h78.49a6.55,6.55,0,0,0,6.46-5.62L289,323.63H26.38l49.2,349.83A6.55,6.55,0,0,0,82,679.08Z"/><g class="cls-4"><rect class="cls-11" x="221.21" y="610.16" width="17.35" height="17.35" rx="3.39" ry="3.39" transform="translate(500.92 1220.79) rotate(176.14)"/><rect class="cls-7" x="218.47" y="619.98" width="17.35" height="17.35" rx="3.39" ry="3.39" transform="translate(690.6 1110.35) rotate(155.97)"/><rect class="cls-11" x="178.82" y="629.94" width="17.35" height="17.35" rx="3.39" ry="3.39" transform="translate(501.82 51.94) rotate(44.54)"/><rect class="cls-7" x="187.22" y="632.95" width="17.35" height="17.35" rx="3.39" ry="3.39" transform="translate(506.34 46.91) rotate(44.54)"/></g><g class="cls-4"><rect class="cls-11" x="152.65" y="610.29" width="17.35" height="17.35" rx="3.39" ry="3.39" transform="matrix(1, -0.07, 0.07, 1, -41.31, 12.27)"/><rect class="cls-7" x="155.38" y="600.47" width="17.35" height="17.35" rx="3.39" ry="3.39" transform="translate(-233.82 119.59) rotate(-24.03)"/><rect class="cls-11" x="195.03" y="590.51" width="17.35" height="17.35" rx="3.39" ry="3.39" transform="translate(-71.39 1169.13) rotate(-135.46)"/><rect class="cls-7" x="186.63" y="587.5" width="17.35" height="17.35" rx="3.39" ry="3.39" transform="translate(-83.67 1158.08) rotate(-135.46)"/></g><g class="cls-4"><rect class="cls-11" x="138.56" y="631.68" width="17.35" height="17.35" rx="3.39" ry="3.39" transform="translate(104.79 1296.04) rotate(-163.35)"/><rect class="cls-7" x="132.55" y="639.92" width="17.35" height="17.35" rx="3.39" ry="3.39" transform="translate(321.96 1287.31) rotate(176.49)"/><rect class="cls-11" x="91.93" y="635.35" width="17.35" height="17.35" rx="3.39" ry="3.39" transform="translate(642.13 281.2) rotate(65.06)"/><rect class="cls-7" x="98.74" y="641.12" width="17.35" height="17.35" rx="3.39" ry="3.39" transform="translate(651.3 278.36) rotate(65.06)"/></g><g class="cls-4"><rect class="cls-11" x="74.3" y="607.77" width="17.35" height="17.35" rx="3.39" ry="3.39" transform="translate(180.13 2.08) rotate(16.65)"/><rect class="cls-7" x="80.3" y="599.53" width="17.35" height="17.35" rx="3.39" ry="3.39" transform="translate(-37.12 6.6) rotate(-3.51)"/><rect class="cls-11" x="120.93" y="604.1" width="17.35" height="17.35" rx="3.39" ry="3.39" transform="translate(-371.35 988.71) rotate(-114.94)"/><rect class="cls-7" x="114.12" y="598.33" width="17.35" height="17.35" rx="3.39" ry="3.39" transform="translate(-375.81 974.34) rotate(-114.94)"/></g><path class="cls-7" d="M254.87,451l-15,107.43-2.13,15.26c-.39,2.83,3.94,4.06,4.34,1.2l15-107.43,2.13-15.26c.39-2.83-3.94-4.06-4.34-1.2Z"/><path class="cls-7" d="M262.72,394.71l-4.44,31.83c-.39,2.83,3.94,4.06,4.34,1.2l4.44-31.83c.39-2.83-3.94-4.06-4.34-1.2Z"/><path class="cls-7" d="M269.13,348.68l-4.38,31.39c-.39,2.83,3.94,4.06,4.34,1.2l4.38-31.39c.39-2.83-3.94-4.06-4.34-1.2Z"/></g></g></svg>