<svg xmlns="http://www.w3.org/2000/svg" viewBox="0 0 294.1 307.37"><defs><style>.cls-1,.cls-5,.cls-8{fill:none;stroke-miterlimit:10;}.cls-1{stroke:#778c97;}.cls-2,.cls-4{fill:#dee6f1;}.cls-2{opacity:0.25;}.cls-3{fill:#fff;}.cls-5,.cls-8{stroke:#374449;}.cls-5{stroke-width:10px;}.cls-6{fill:#50a7bc;}.cls-7{fill:#439baa;}.cls-8{stroke-width:5px;}.cls-9{fill:#374449;}</style></defs><title>Asset 140</title><g id="Layer_2" data-name="Layer 2"><g id="Layer_1-2" data-name="Layer 1"><path class="cls-1" d="M147.9,155.9"/><ellipse class="cls-2" cx="147.9" cy="288.62" rx="112.5" ry="18.75"/><circle class="cls-3" cx="148.75" cy="146.48" r="142.05"/><path class="cls-4" d="M170.34,265.8A142.06,142.06,0,0,1,54.86,41,142,142,0,1,0,264.24,230.33,141.5,141.5,0,0,1,170.34,265.8Z"/><path class="cls-5" d="M221.47,26a142.41,142.41,0,0,1,13.26,9.25"/><path class="cls-6" d="M277.27,84.14C240.46,94.78,196.77,101,149.89,101S59.31,94.78,22.5,84.14a141.21,141.21,0,0,1,9.7-16.66c34.69,9,74.85,14.16,117.68,14.16s83-5.15,117.67-14.16A139.65,139.65,0,0,1,277.27,84.14Z"/><path class="cls-7" d="M39.15,69.21a139.24,139.24,0,0,0-6,17.55C29.58,85.87,26,85,22.57,84a143,143,0,0,1,9.64-16.51Q35.64,68.36,39.15,69.21Z"/><path class="cls-8" d="M273.86,83c-36.81,10.65-80.5,16.82-127.38,16.82S55.9,93.65,19.1,83a141.21,141.21,0,0,1,9.7-16.66c34.69,9,74.85,14.16,117.68,14.16s83-5.15,117.67-14.16A139.65,139.65,0,0,1,273.86,83Z"/><path class="cls-5" d="M257.24,57.4a141.69,141.69,0,1,1-61.86-44"/><path class="cls-9" d="M76.1,138.79l21,21c2.73,2.73,7-1.51,4.24-4.24l-21-21c-2.73-2.73-7,1.51-4.24,4.24Z"/><path class="cls-9" d="M97.1,134.55l-21,21c-2.73,2.73,1.51,7,4.24,4.24l21-21c2.73-2.73-1.51-7-4.24-4.24Z"/><path class="cls-9" d="M194.1,138.79l21,21c2.73,2.73,7-1.51,4.24-4.24l-21-21c-2.73-2.73-7,1.51-4.24,4.24Z"/><path class="cls-9" d="M215.1,134.55l-21,21c-2.73,2.73,1.51,7,4.24,4.24l21-21c2.73-2.73-1.51-7-4.24-4.24Z"/><circle class="cls-9" cx="150.22" cy="207.67" r="20"/></g></g></svg>